{"title":"Asian animal sex","uid":8274265,"size":379645542,"categoryP":"porn","categoryS":"movie_clips","magnet":"?xt=urn:btih:837ca36115eacad968bc8e3d6e040277b14b6f25&amp;dn=Asian+animal+sex&amp;tr=udp%3A%2F%2Ftracker.openbittorrent.com%3A80&amp;tr=udp%3A%2F%2Fopen.demonii.com%3A1337&amp;tr=udp%3A%2F%2Ftracker.coppersurfer.tk%3A6969&amp;tr=udp%3A%2F%2Fexodus.desync.com%3A6969","seeders":5,"leechers":2,"uploader":"Wanderer19","files":1,"time":1363678226,"description":" &lt;a href=&quot;http://bayimg.com/dakDGaAEm&quot; rel=&quot;nofollow&quot; target=&quot;_NEW&quot;&gt;http://bayimg.com/dakDGaAEm&lt;/a&gt;\n &lt;a href=&quot;\nhttp://bayimg.com/daKdhaAEM&quot; rel=&quot;nofollow&quot; target=&quot;_NEW&quot;&gt;\nhttp://bayimg.com/daKdhaAEM&lt;/a&gt;\n\n\nGeneral\nComplete name                            : D:AsianZ_62AsianZ_62.wmv\nFormat                                   : Windows Media\nFile size                                : 362 MiB\nDuration                                 : 32mn 46s\nOverall bit rate mode                    : Constant\nOverall bit rate                         : 1 544 Kbps\nMaximum Overall bit rate                 : 1 571 Kbps\nMovie name                               : www\nEncoded date                             : UTC 2006-09-04 01:45:25.156\n\nVideo\nID                                       : 2\nFormat                                   : VC-1\nFormat profile                           : Main\nCodec ID                                 : WMV3\nCodec ID/Info                            : Windows Media Video 9\nCodec ID/Hint                            : WMV3\nDescription of the codec                 : Windows Media Video 9 - Professional\nDuration                                 : 32mn 47s\nBit rate mode                            : Constant\nBit rate                                 : 1 427 Kbps\nWidth                                    : 640 pixels\nHeight                                   : 480 pixels\nDisplay aspect ratio                     : 4:3\nFrame rate                               : 30.000 fps\nBit depth                                : 8 bits\nScan type                                : Progressive\nCompression mode                         : Lossy\nBits/(Pixel*Frame)                       : 0.155\nStream size                              : 335 MiB (92%)\nLanguage                                 : English (US)\n\nAudio\nID                                       : 1\nFormat                                   : WMA\nFormat version                           : Version 2\nCodec ID                                 : 161\nCodec ID/Info                            : Windows Media Audio\nDescription of the codec                 : Windows Media Audio 9.1 - 128 kbps, 44 kHz, stereo (A/V) 1-pass CBR\nDuration                                 : 32mn 46s\nBit rate mode                            : Constant\nBit rate                                 : 128 Kbps\nChannel(s)                               : 2 channels\nSampling rate                            : 44.1 KHz\nBit depth                                : 16 bits\nStream size                              : 30.0 MiB (8%)\nLanguage                                 : English (US)\n\n","torrent":{"xt":"urn:btih:837ca36115eacad968bc8e3d6e040277b14b6f25","amp;dn":"Asian+animal+sex","amp;tr":["udp%3A%2F%2Ftracker.openbittorrent.com%3A80","udp%3A%2F%2Fopen.demonii.com%3A1337","udp%3A%2F%2Ftracker.coppersurfer.tk%3A6969","udp%3A%2F%2Fexodus.desync.com%3A6969"],"infoHash":"837ca36115eacad968bc8e3d6e040277b14b6f25","infoHashBuffer":{"type":"Buffer","data":[131,124,163,97,21,234,202,217,104,188,142,61,110,4,2,119,177,75,111,37]},"announce":[],"urlList":[]}}